REM MD5 db400a3be36903d12ae21e37b9a7bd51
FILE "Euro Demo (Future) 104 (Europe).bin" BINARY
  TRACK 01 MODE2/2352
    INDEX 01 00:00:00
  TRACK 02 AUDIO
    INDEX 00 49:05:09
    INDEX 01 49:07:09
  TRACK 03 AUDIO
    INDEX 00 52:33:67
    INDEX 01 52:35:67
  TRACK 04 AUDIO
    INDEX 00 56:50:00
    INDEX 01 56:52:00
  TRACK 05 AUDIO
    INDEX 00 57:24:00
    INDEX 01 57:26:00
  TRACK 06 AUDIO
    INDEX 00 61:27:00
    INDEX 01 61:29:00
REM LEADOUT 64:30:32
